<mxfile host="app.diagrams.net" agent="Mozilla/5.0 (Windows NT 10.0; Win64; x64) AppleWebKit/537.36 (KHTML, like Gecko) Chrome/132.0.0.0 Safari/537.36" version="26.0.10">
  <diagram name="Page-1" id="9mQ9ZX5lmIJOBtvkhXA7">
    <mxGraphModel dx="2096" dy="446" grid="1" gridSize="10" guides="1" tooltips="1" connect="1" arrows="1" fold="1" page="1" pageScale="1" pageWidth="850" pageHeight="1100" math="0" shadow="0">
      <root>
        <mxCell id="0" />
        <mxCell id="1" parent="0" />
        <mxCell id="N5aHIdoO1ZOXEfKflo4E-1" value="" style="shape=image;verticalLabelPosition=bottom;labelBackgroundColor=default;verticalAlign=top;aspect=fixed;imageAspect=0;image=https://cellfi.co.il/wp-content/uploads/2023/11/white.jpg;imageBorder=none;imageBackground=default;connectable=0;" vertex="1" parent="1">
          <mxGeometry x="90" y="200" width="345" height="345" as="geometry" />
        </mxCell>
        <mxCell id="N5aHIdoO1ZOXEfKflo4E-3" value="L2 - Deplete" style="rounded=0;whiteSpace=wrap;html=1;" vertex="1" parent="1">
          <mxGeometry x="-120" y="110" width="120" height="40" as="geometry" />
        </mxCell>
        <mxCell id="N5aHIdoO1ZOXEfKflo4E-24" style="edgeStyle=orthogonalEdgeStyle;rounded=0;orthogonalLoop=1;jettySize=auto;html=1;fontFamily=Helvetica;fontSize=12;fontColor=default;labelBackgroundColor=default;fillColor=#3333FF;strokeColor=light-dark(#3333FF,#FFFFFF);" edge="1" parent="1" source="N5aHIdoO1ZOXEfKflo4E-4">
          <mxGeometry relative="1" as="geometry">
            <mxPoint x="170.00000000000023" y="270" as="targetPoint" />
          </mxGeometry>
        </mxCell>
        <mxCell id="N5aHIdoO1ZOXEfKflo4E-4" value="L1 - go to left side (rife)" style="rounded=0;whiteSpace=wrap;html=1;" vertex="1" parent="1">
          <mxGeometry x="-120" y="170" width="120" height="40" as="geometry" />
        </mxCell>
        <mxCell id="N5aHIdoO1ZOXEfKflo4E-27" style="edgeStyle=orthogonalEdgeStyle;rounded=0;orthogonalLoop=1;jettySize=auto;html=1;fontFamily=Helvetica;fontSize=12;fontColor=default;labelBackgroundColor=default;fillColor=#3333FF;strokeColor=light-dark(#3333FF,#FFFFFF);" edge="1" parent="1" source="N5aHIdoO1ZOXEfKflo4E-5">
          <mxGeometry relative="1" as="geometry">
            <mxPoint x="160.00000000000023" y="310" as="targetPoint" />
            <Array as="points">
              <mxPoint x="-10" y="260" />
              <mxPoint x="-10" y="290" />
              <mxPoint x="160" y="290" />
            </Array>
          </mxGeometry>
        </mxCell>
        <mxCell id="N5aHIdoO1ZOXEfKflo4E-5" value="Up - go to middle(rife)&amp;nbsp;" style="rounded=0;whiteSpace=wrap;html=1;" vertex="1" parent="1">
          <mxGeometry x="-160" y="240" width="120" height="40" as="geometry" />
        </mxCell>
        <mxCell id="N5aHIdoO1ZOXEfKflo4E-29" style="edgeStyle=orthogonalEdgeStyle;rounded=0;orthogonalLoop=1;jettySize=auto;html=1;fontFamily=Helvetica;fontSize=12;fontColor=default;labelBackgroundColor=default;strokeColor=light-dark(#3333FF,#FFFFFF);" edge="1" parent="1" source="N5aHIdoO1ZOXEfKflo4E-6">
          <mxGeometry relative="1" as="geometry">
            <mxPoint x="140.00000000000023" y="330" as="targetPoint" />
          </mxGeometry>
        </mxCell>
        <mxCell id="N5aHIdoO1ZOXEfKflo4E-6" value="Left - ALGAE(low&lt;span style=&quot;background-color: transparent; color: light-dark(rgb(0, 0, 0), rgb(255, 255, 255));&quot;&gt;)&lt;/span&gt;" style="rounded=0;whiteSpace=wrap;html=1;" vertex="1" parent="1">
          <mxGeometry x="-160" y="290" width="120" height="40" as="geometry" />
        </mxCell>
        <mxCell id="N5aHIdoO1ZOXEfKflo4E-33" style="edgeStyle=orthogonalEdgeStyle;rounded=0;orthogonalLoop=1;jettySize=auto;html=1;fontFamily=Helvetica;fontSize=12;fontColor=default;labelBackgroundColor=default;strokeColor=light-dark(#3333FF,#FFFFFF);" edge="1" parent="1" source="N5aHIdoO1ZOXEfKflo4E-7">
          <mxGeometry relative="1" as="geometry">
            <mxPoint x="180.00000000000023" y="330" as="targetPoint" />
          </mxGeometry>
        </mxCell>
        <mxCell id="N5aHIdoO1ZOXEfKflo4E-7" value="Right - ALGAE(high&lt;span style=&quot;background-color: transparent; color: light-dark(rgb(0, 0, 0), rgb(255, 255, 255));&quot;&gt;)&lt;/span&gt;" style="rounded=0;whiteSpace=wrap;html=1;" vertex="1" parent="1">
          <mxGeometry x="-160" y="352.5" width="120" height="40" as="geometry" />
        </mxCell>
        <mxCell id="N5aHIdoO1ZOXEfKflo4E-34" style="edgeStyle=orthogonalEdgeStyle;rounded=0;orthogonalLoop=1;jettySize=auto;html=1;fontFamily=Helvetica;fontSize=12;fontColor=default;labelBackgroundColor=default;fillColor=#FFFF99;strokeColor=light-dark(#3333FF,#FFFFFF);" edge="1" parent="1" source="N5aHIdoO1ZOXEfKflo4E-8">
          <mxGeometry relative="1" as="geometry">
            <mxPoint x="160.00000000000023" y="350" as="targetPoint" />
          </mxGeometry>
        </mxCell>
        <mxCell id="N5aHIdoO1ZOXEfKflo4E-8" value="Down- Level 0" style="rounded=0;whiteSpace=wrap;html=1;" vertex="1" parent="1">
          <mxGeometry x="-160" y="420" width="120" height="40" as="geometry" />
        </mxCell>
        <mxCell id="N5aHIdoO1ZOXEfKflo4E-10" style="edgeStyle=orthogonalEdgeStyle;rounded=0;orthogonalLoop=1;jettySize=auto;html=1;entryX=0.186;entryY=0.2;entryDx=0;entryDy=0;entryPerimeter=0;fillColor=#3333FF;strokeColor=light-dark(#3333FF,#FFFFFF);" edge="1" parent="1" source="N5aHIdoO1ZOXEfKflo4E-3" target="N5aHIdoO1ZOXEfKflo4E-1">
          <mxGeometry relative="1" as="geometry" />
        </mxCell>
        <mxCell id="N5aHIdoO1ZOXEfKflo4E-44" style="edgeStyle=orthogonalEdgeStyle;rounded=0;orthogonalLoop=1;jettySize=auto;html=1;fontFamily=Helvetica;fontSize=12;fontColor=default;labelBackgroundColor=default;fillColor=#3333FF;strokeColor=light-dark(#3333FF,#FFFFFF);" edge="1" parent="1" source="N5aHIdoO1ZOXEfKflo4E-37">
          <mxGeometry relative="1" as="geometry">
            <mxPoint x="350" y="270" as="targetPoint" />
          </mxGeometry>
        </mxCell>
        <mxCell id="N5aHIdoO1ZOXEfKflo4E-37" value="R2 - Intake" style="rounded=0;whiteSpace=wrap;html=1;" vertex="1" parent="1">
          <mxGeometry x="430" y="120" width="120" height="40" as="geometry" />
        </mxCell>
        <mxCell id="N5aHIdoO1ZOXEfKflo4E-45" style="edgeStyle=orthogonalEdgeStyle;rounded=0;orthogonalLoop=1;jettySize=auto;html=1;fontFamily=Helvetica;fontSize=12;fontColor=default;labelBackgroundColor=default;fillColor=#3333FF;strokeColor=light-dark(#3333FF,#FFFFFF);" edge="1" parent="1" source="N5aHIdoO1ZOXEfKflo4E-38">
          <mxGeometry relative="1" as="geometry">
            <mxPoint x="370" y="270" as="targetPoint" />
          </mxGeometry>
        </mxCell>
        <mxCell id="N5aHIdoO1ZOXEfKflo4E-38" value="L1 - go to right side (rife)" style="rounded=0;whiteSpace=wrap;html=1;" vertex="1" parent="1">
          <mxGeometry x="450" y="170" width="120" height="40" as="geometry" />
        </mxCell>
        <mxCell id="N5aHIdoO1ZOXEfKflo4E-46" style="edgeStyle=orthogonalEdgeStyle;rounded=0;orthogonalLoop=1;jettySize=auto;html=1;fontFamily=Helvetica;fontSize=12;fontColor=default;labelBackgroundColor=default;fillColor=#3333FF;strokeColor=light-dark(#3333FF,#FFFFFF);" edge="1" parent="1" source="N5aHIdoO1ZOXEfKflo4E-39">
          <mxGeometry relative="1" as="geometry">
            <mxPoint x="370" y="310" as="targetPoint" />
            <Array as="points">
              <mxPoint x="371" y="290" />
              <mxPoint x="371" y="310" />
            </Array>
          </mxGeometry>
        </mxCell>
        <mxCell id="N5aHIdoO1ZOXEfKflo4E-39" value="Triangle - Level3&lt;div&gt;(Elevator)&lt;/div&gt;" style="rounded=0;whiteSpace=wrap;html=1;" vertex="1" parent="1">
          <mxGeometry x="510" y="250" width="120" height="40" as="geometry" />
        </mxCell>
        <mxCell id="N5aHIdoO1ZOXEfKflo4E-47" style="edgeStyle=orthogonalEdgeStyle;rounded=0;orthogonalLoop=1;jettySize=auto;html=1;fontFamily=Helvetica;fontSize=12;fontColor=default;labelBackgroundColor=default;fillColor=#3333FF;strokeColor=light-dark(#3333FF,#FFFFFF);" edge="1" parent="1" source="N5aHIdoO1ZOXEfKflo4E-41">
          <mxGeometry relative="1" as="geometry">
            <mxPoint x="390" y="330" as="targetPoint" />
          </mxGeometry>
        </mxCell>
        <mxCell id="N5aHIdoO1ZOXEfKflo4E-41" value="Circle - Level2&lt;div&gt;(Elevator)&lt;/div&gt;" style="rounded=0;whiteSpace=wrap;html=1;" vertex="1" parent="1">
          <mxGeometry x="510" y="300" width="120" height="40" as="geometry" />
        </mxCell>
        <mxCell id="N5aHIdoO1ZOXEfKflo4E-54" style="edgeStyle=orthogonalEdgeStyle;rounded=0;orthogonalLoop=1;jettySize=auto;html=1;fontFamily=Helvetica;fontSize=12;fontColor=default;labelBackgroundColor=default;strokeColor=light-dark(#3333FF,#FFFFFF);" edge="1" parent="1" source="N5aHIdoO1ZOXEfKflo4E-53">
          <mxGeometry relative="1" as="geometry">
            <mxPoint x="320" y="380" as="targetPoint" />
          </mxGeometry>
        </mxCell>
        <mxCell id="N5aHIdoO1ZOXEfKflo4E-53" value="Right stick - RobotState Travel" style="rounded=0;whiteSpace=wrap;html=1;" vertex="1" parent="1">
          <mxGeometry x="500" y="520" width="120" height="40" as="geometry" />
        </mxCell>
        <mxCell id="N5aHIdoO1ZOXEfKflo4E-57" style="edgeStyle=orthogonalEdgeStyle;rounded=0;orthogonalLoop=1;jettySize=auto;html=1;fontFamily=Helvetica;fontSize=12;fontColor=default;labelBackgroundColor=default;strokeColor=light-dark(#3333FF,#FFFFFF);" edge="1" parent="1" source="N5aHIdoO1ZOXEfKflo4E-55">
          <mxGeometry relative="1" as="geometry">
            <mxPoint x="340" y="300" as="targetPoint" />
            <Array as="points">
              <mxPoint x="310" y="175" />
              <mxPoint x="340" y="175" />
            </Array>
          </mxGeometry>
        </mxCell>
        <mxCell id="N5aHIdoO1ZOXEfKflo4E-55" value="Option - open Climb" style="rounded=0;whiteSpace=wrap;html=1;" vertex="1" parent="1">
          <mxGeometry x="310" y="10" width="120" height="40" as="geometry" />
        </mxCell>
        <mxCell id="N5aHIdoO1ZOXEfKflo4E-58" style="edgeStyle=orthogonalEdgeStyle;rounded=0;orthogonalLoop=1;jettySize=auto;html=1;fontFamily=Helvetica;fontSize=12;fontColor=default;labelBackgroundColor=default;strokeColor=light-dark(#3333FF,#FFFFFF);" edge="1" parent="1" source="N5aHIdoO1ZOXEfKflo4E-56">
          <mxGeometry relative="1" as="geometry">
            <mxPoint x="180" y="290" as="targetPoint" />
            <Array as="points">
              <mxPoint x="200" y="170" />
              <mxPoint x="180" y="170" />
            </Array>
          </mxGeometry>
        </mxCell>
        <mxCell id="N5aHIdoO1ZOXEfKflo4E-56" value="Select - Climb" style="rounded=0;whiteSpace=wrap;html=1;" vertex="1" parent="1">
          <mxGeometry x="90" y="10" width="120" height="40" as="geometry" />
        </mxCell>
        <mxCell id="N5aHIdoO1ZOXEfKflo4E-59" value="" style="shape=image;verticalLabelPosition=bottom;labelBackgroundColor=default;verticalAlign=top;aspect=fixed;imageAspect=0;image=https://cellfi.co.il/wp-content/uploads/2023/11/white.jpg;imageBorder=none;imageBackground=default;connectable=0;" vertex="1" parent="1">
          <mxGeometry x="90" y="200" width="345" height="345" as="geometry" />
        </mxCell>
        <mxCell id="N5aHIdoO1ZOXEfKflo4E-60" value="L2 - Deplete" style="rounded=0;whiteSpace=wrap;html=1;" vertex="1" parent="1">
          <mxGeometry x="-120" y="110" width="120" height="40" as="geometry" />
        </mxCell>
        <mxCell id="N5aHIdoO1ZOXEfKflo4E-61" style="edgeStyle=orthogonalEdgeStyle;rounded=0;orthogonalLoop=1;jettySize=auto;html=1;fontFamily=Helvetica;fontSize=12;fontColor=default;labelBackgroundColor=default;fillColor=#3333FF;strokeColor=light-dark(#3333FF,#FFFFFF);" edge="1" parent="1" source="N5aHIdoO1ZOXEfKflo4E-62">
          <mxGeometry relative="1" as="geometry">
            <mxPoint x="170.00000000000023" y="270" as="targetPoint" />
          </mxGeometry>
        </mxCell>
        <mxCell id="N5aHIdoO1ZOXEfKflo4E-62" value="L1 - go to left side (rife)" style="rounded=0;whiteSpace=wrap;html=1;" vertex="1" parent="1">
          <mxGeometry x="-120" y="170" width="120" height="40" as="geometry" />
        </mxCell>
        <mxCell id="N5aHIdoO1ZOXEfKflo4E-63" style="edgeStyle=orthogonalEdgeStyle;rounded=0;orthogonalLoop=1;jettySize=auto;html=1;fontFamily=Helvetica;fontSize=12;fontColor=default;labelBackgroundColor=default;fillColor=#3333FF;strokeColor=light-dark(#3333FF,#FFFFFF);" edge="1" parent="1" source="N5aHIdoO1ZOXEfKflo4E-64">
          <mxGeometry relative="1" as="geometry">
            <mxPoint x="160.00000000000023" y="310" as="targetPoint" />
            <Array as="points">
              <mxPoint x="-10" y="260" />
              <mxPoint x="-10" y="290" />
              <mxPoint x="160" y="290" />
            </Array>
          </mxGeometry>
        </mxCell>
        <mxCell id="N5aHIdoO1ZOXEfKflo4E-64" value="Up - go to middle(rife)&amp;nbsp;" style="rounded=0;whiteSpace=wrap;html=1;" vertex="1" parent="1">
          <mxGeometry x="-160" y="240" width="120" height="40" as="geometry" />
        </mxCell>
        <mxCell id="N5aHIdoO1ZOXEfKflo4E-65" style="edgeStyle=orthogonalEdgeStyle;rounded=0;orthogonalLoop=1;jettySize=auto;html=1;fontFamily=Helvetica;fontSize=12;fontColor=default;labelBackgroundColor=default;strokeColor=light-dark(#3333FF,#FFFFFF);" edge="1" parent="1" source="N5aHIdoO1ZOXEfKflo4E-66">
          <mxGeometry relative="1" as="geometry">
            <mxPoint x="140.00000000000023" y="330" as="targetPoint" />
          </mxGeometry>
        </mxCell>
        <mxCell id="N5aHIdoO1ZOXEfKflo4E-66" value="Left - ALGAE(low&lt;span style=&quot;background-color: transparent; color: light-dark(rgb(0, 0, 0), rgb(255, 255, 255));&quot;&gt;)&lt;/span&gt;" style="rounded=0;whiteSpace=wrap;html=1;" vertex="1" parent="1">
          <mxGeometry x="-160" y="290" width="120" height="40" as="geometry" />
        </mxCell>
        <mxCell id="N5aHIdoO1ZOXEfKflo4E-67" style="edgeStyle=orthogonalEdgeStyle;rounded=0;orthogonalLoop=1;jettySize=auto;html=1;fontFamily=Helvetica;fontSize=12;fontColor=default;labelBackgroundColor=default;strokeColor=light-dark(#3333FF,#FFFFFF);" edge="1" parent="1" source="N5aHIdoO1ZOXEfKflo4E-68">
          <mxGeometry relative="1" as="geometry">
            <mxPoint x="180.00000000000023" y="330" as="targetPoint" />
          </mxGeometry>
        </mxCell>
        <mxCell id="N5aHIdoO1ZOXEfKflo4E-68" value="Right - ALGAE(high&lt;span style=&quot;background-color: transparent; color: light-dark(rgb(0, 0, 0), rgb(255, 255, 255));&quot;&gt;)&lt;/span&gt;" style="rounded=0;whiteSpace=wrap;html=1;" vertex="1" parent="1">
          <mxGeometry x="-160" y="352.5" width="120" height="40" as="geometry" />
        </mxCell>
        <mxCell id="N5aHIdoO1ZOXEfKflo4E-69" style="edgeStyle=orthogonalEdgeStyle;rounded=0;orthogonalLoop=1;jettySize=auto;html=1;fontFamily=Helvetica;fontSize=12;fontColor=default;labelBackgroundColor=default;fillColor=#FFFF99;strokeColor=light-dark(#3333FF,#FFFFFF);" edge="1" parent="1" source="N5aHIdoO1ZOXEfKflo4E-70">
          <mxGeometry relative="1" as="geometry">
            <mxPoint x="160.00000000000023" y="350" as="targetPoint" />
          </mxGeometry>
        </mxCell>
        <mxCell id="N5aHIdoO1ZOXEfKflo4E-70" value="Down- Level 0" style="rounded=0;whiteSpace=wrap;html=1;" vertex="1" parent="1">
          <mxGeometry x="-160" y="420" width="120" height="40" as="geometry" />
        </mxCell>
        <mxCell id="N5aHIdoO1ZOXEfKflo4E-71" style="edgeStyle=orthogonalEdgeStyle;rounded=0;orthogonalLoop=1;jettySize=auto;html=1;entryX=0.186;entryY=0.2;entryDx=0;entryDy=0;entryPerimeter=0;fillColor=#3333FF;strokeColor=light-dark(#3333FF,#FFFFFF);" edge="1" parent="1" source="N5aHIdoO1ZOXEfKflo4E-60" target="N5aHIdoO1ZOXEfKflo4E-59">
          <mxGeometry relative="1" as="geometry" />
        </mxCell>
        <mxCell id="N5aHIdoO1ZOXEfKflo4E-72" style="edgeStyle=orthogonalEdgeStyle;rounded=0;orthogonalLoop=1;jettySize=auto;html=1;fontFamily=Helvetica;fontSize=12;fontColor=default;labelBackgroundColor=default;fillColor=#3333FF;strokeColor=light-dark(#3333FF,#FFFFFF);" edge="1" parent="1" source="N5aHIdoO1ZOXEfKflo4E-73">
          <mxGeometry relative="1" as="geometry">
            <mxPoint x="350" y="270" as="targetPoint" />
          </mxGeometry>
        </mxCell>
        <mxCell id="N5aHIdoO1ZOXEfKflo4E-73" value="R2 - Intake" style="rounded=0;whiteSpace=wrap;html=1;" vertex="1" parent="1">
          <mxGeometry x="430" y="120" width="120" height="40" as="geometry" />
        </mxCell>
        <mxCell id="N5aHIdoO1ZOXEfKflo4E-74" style="edgeStyle=orthogonalEdgeStyle;rounded=0;orthogonalLoop=1;jettySize=auto;html=1;fontFamily=Helvetica;fontSize=12;fontColor=default;labelBackgroundColor=default;fillColor=#3333FF;strokeColor=light-dark(#3333FF,#FFFFFF);" edge="1" parent="1" source="N5aHIdoO1ZOXEfKflo4E-75">
          <mxGeometry relative="1" as="geometry">
            <mxPoint x="370" y="270" as="targetPoint" />
          </mxGeometry>
        </mxCell>
        <mxCell id="N5aHIdoO1ZOXEfKflo4E-75" value="R1 - go to right side (rife)" style="rounded=0;whiteSpace=wrap;html=1;" vertex="1" parent="1">
          <mxGeometry x="450" y="170" width="120" height="40" as="geometry" />
        </mxCell>
        <mxCell id="N5aHIdoO1ZOXEfKflo4E-76" style="edgeStyle=orthogonalEdgeStyle;rounded=0;orthogonalLoop=1;jettySize=auto;html=1;fontFamily=Helvetica;fontSize=12;fontColor=default;labelBackgroundColor=default;fillColor=#3333FF;strokeColor=light-dark(#3333FF,#FFFFFF);" edge="1" parent="1" source="N5aHIdoO1ZOXEfKflo4E-77">
          <mxGeometry relative="1" as="geometry">
            <mxPoint x="370" y="310" as="targetPoint" />
            <Array as="points">
              <mxPoint x="371" y="290" />
              <mxPoint x="371" y="310" />
            </Array>
          </mxGeometry>
        </mxCell>
        <mxCell id="N5aHIdoO1ZOXEfKflo4E-77" value="Triangle - Level3&lt;div&gt;(Elevator)&lt;/div&gt;" style="rounded=0;whiteSpace=wrap;html=1;" vertex="1" parent="1">
          <mxGeometry x="510" y="250" width="120" height="40" as="geometry" />
        </mxCell>
        <mxCell id="N5aHIdoO1ZOXEfKflo4E-78" style="edgeStyle=orthogonalEdgeStyle;rounded=0;orthogonalLoop=1;jettySize=auto;html=1;fontFamily=Helvetica;fontSize=12;fontColor=default;labelBackgroundColor=default;strokeColor=light-dark(#3333FF,#FFFFFF);" edge="1" parent="1" source="N5aHIdoO1ZOXEfKflo4E-79">
          <mxGeometry relative="1" as="geometry">
            <mxPoint x="340" y="330" as="targetPoint" />
          </mxGeometry>
        </mxCell>
        <mxCell id="N5aHIdoO1ZOXEfKflo4E-79" value="Square - Level1&lt;div&gt;&lt;div&gt;(Elevator)&lt;/div&gt;&lt;/div&gt;" style="rounded=0;whiteSpace=wrap;html=1;" vertex="1" parent="1">
          <mxGeometry x="510" y="352.5" width="120" height="40" as="geometry" />
        </mxCell>
        <mxCell id="N5aHIdoO1ZOXEfKflo4E-80" style="edgeStyle=orthogonalEdgeStyle;rounded=0;orthogonalLoop=1;jettySize=auto;html=1;fontFamily=Helvetica;fontSize=12;fontColor=default;labelBackgroundColor=default;fillColor=#3333FF;strokeColor=light-dark(#3333FF,#FFFFFF);" edge="1" parent="1" source="N5aHIdoO1ZOXEfKflo4E-81">
          <mxGeometry relative="1" as="geometry">
            <mxPoint x="390" y="330" as="targetPoint" />
          </mxGeometry>
        </mxCell>
        <mxCell id="N5aHIdoO1ZOXEfKflo4E-81" value="Circle - Level2&lt;div&gt;(Elevator)&lt;/div&gt;" style="rounded=0;whiteSpace=wrap;html=1;" vertex="1" parent="1">
          <mxGeometry x="510" y="300" width="120" height="40" as="geometry" />
        </mxCell>
        <mxCell id="N5aHIdoO1ZOXEfKflo4E-82" style="edgeStyle=orthogonalEdgeStyle;rounded=0;orthogonalLoop=1;jettySize=auto;html=1;fontFamily=Helvetica;fontSize=12;fontColor=default;labelBackgroundColor=default;strokeColor=light-dark(#3333FF,#FFFFFF);" edge="1" parent="1" source="N5aHIdoO1ZOXEfKflo4E-83">
          <mxGeometry relative="1" as="geometry">
            <mxPoint x="360" y="350" as="targetPoint" />
          </mxGeometry>
        </mxCell>
        <mxCell id="N5aHIdoO1ZOXEfKflo4E-83" value="Cross - Base&lt;div&gt;&lt;span style=&quot;background-color: transparent; color: light-dark(rgb(0, 0, 0), rgb(255, 255, 255));&quot;&gt;(Elevator)&lt;/span&gt;&lt;/div&gt;" style="rounded=0;whiteSpace=wrap;html=1;" vertex="1" parent="1">
          <mxGeometry x="510" y="410" width="120" height="40" as="geometry" />
        </mxCell>
        <mxCell id="N5aHIdoO1ZOXEfKflo4E-84" style="edgeStyle=orthogonalEdgeStyle;rounded=0;orthogonalLoop=1;jettySize=auto;html=1;fontFamily=Helvetica;fontSize=12;fontColor=default;labelBackgroundColor=default;strokeColor=light-dark(#3333FF,#FFFFFF);" edge="1" parent="1" source="N5aHIdoO1ZOXEfKflo4E-85">
          <mxGeometry relative="1" as="geometry">
            <mxPoint x="320" y="380" as="targetPoint" />
          </mxGeometry>
        </mxCell>
        <mxCell id="N5aHIdoO1ZOXEfKflo4E-85" value="Right stick - RobotState Travel" style="rounded=0;whiteSpace=wrap;html=1;" vertex="1" parent="1">
          <mxGeometry x="500" y="520" width="120" height="40" as="geometry" />
        </mxCell>
        <mxCell id="N5aHIdoO1ZOXEfKflo4E-86" style="edgeStyle=orthogonalEdgeStyle;rounded=0;orthogonalLoop=1;jettySize=auto;html=1;fontFamily=Helvetica;fontSize=12;fontColor=default;labelBackgroundColor=default;strokeColor=light-dark(#3333FF,#FFFFFF);" edge="1" parent="1" source="N5aHIdoO1ZOXEfKflo4E-87">
          <mxGeometry relative="1" as="geometry">
            <mxPoint x="340" y="300" as="targetPoint" />
            <Array as="points">
              <mxPoint x="310" y="175" />
              <mxPoint x="340" y="175" />
            </Array>
          </mxGeometry>
        </mxCell>
        <mxCell id="N5aHIdoO1ZOXEfKflo4E-87" value="Option - open Climb" style="rounded=0;whiteSpace=wrap;html=1;" vertex="1" parent="1">
          <mxGeometry x="310" y="10" width="120" height="40" as="geometry" />
        </mxCell>
        <mxCell id="N5aHIdoO1ZOXEfKflo4E-88" style="edgeStyle=orthogonalEdgeStyle;rounded=0;orthogonalLoop=1;jettySize=auto;html=1;fontFamily=Helvetica;fontSize=12;fontColor=default;labelBackgroundColor=default;strokeColor=light-dark(#3333FF,#FFFFFF);" edge="1" parent="1" source="N5aHIdoO1ZOXEfKflo4E-89">
          <mxGeometry relative="1" as="geometry">
            <mxPoint x="180" y="290" as="targetPoint" />
            <Array as="points">
              <mxPoint x="200" y="170" />
              <mxPoint x="180" y="170" />
            </Array>
          </mxGeometry>
        </mxCell>
        <mxCell id="N5aHIdoO1ZOXEfKflo4E-89" value="Select - Climb" style="rounded=0;whiteSpace=wrap;html=1;" vertex="1" parent="1">
          <mxGeometry x="90" y="10" width="120" height="40" as="geometry" />
        </mxCell>
      </root>
    </mxGraphModel>
  </diagram>
</mxfile>
